<svg width="480" height="368" viewBox="0 0 480 368" fill="none" xmlns="http://www.w3.org/2000/svg">
<path d="M359.764 178.032L216.639 95.147L23.1151 207.955L23 215.435L166.124 298.319L359.649 185.511L359.764 178.032Z" fill="#F9F9F9"/>
<path d="M385.169 197.415L191.645 310.223L190.346 310.981V317.021L262.355 358.721L455.88 245.913L456 238.434L385.169 197.415Z" fill="#F9F9F9"/>
<path d="M359.764 162.292L166.239 275.101L23.1151 192.216L216.639 79.4077L359.764 162.292Z" fill="#7BABFF"/>
<path d="M359.764 162.292L359.649 169.772L166.124 282.58L166.239 275.101L359.764 162.292Z" fill="#4870D1"/>
<path d="M166.239 275.1L166.124 282.58L23 199.695L23.1151 192.216L166.239 275.1Z" fill="#507DE4"/>
<path d="M278.496 75.8192L278.441 91.0475C278.425 96.3782 274.929 101.703 267.949 105.776C253.896 113.97 231.038 113.97 216.891 105.776C209.774 101.654 206.219 96.2408 206.235 90.8387L206.29 75.6104C206.273 81.0125 209.829 86.4257 216.946 90.5474C231.093 98.7413 253.95 98.7358 268.004 90.5474C274.984 86.4752 278.479 81.1554 278.496 75.8192Z" fill="#E6E6E7"/>
<path d="M267.834 60.8823C281.98 69.0762 282.057 82.3536 267.998 90.542C253.945 98.736 231.087 98.736 216.941 90.542C202.794 82.3481 202.718 69.0652 216.776 60.8768C230.83 52.6829 253.688 52.6883 267.834 60.8768V60.8823Z" fill="white"/>
<path d="M266.634 61.4979L266.596 71.7252C266.585 75.3083 264.24 78.8859 259.544 81.6173C250.104 87.1184 234.747 87.1239 225.241 81.6173C220.458 78.8475 218.069 75.2094 218.08 71.5823L218.119 61.355C218.108 64.9876 220.497 68.6202 225.28 71.3899C234.785 76.891 250.137 76.891 259.583 71.3899C264.273 68.6531 266.623 65.081 266.634 61.4979Z" fill="#507DE4"/>
<path d="M259.473 51.4682C268.979 56.9693 269.028 65.8942 259.583 71.3953C250.143 76.8964 234.786 76.9019 225.28 71.3953C215.774 65.8942 215.725 56.9693 225.17 51.4627C234.61 45.9616 249.967 45.9616 259.473 51.4627V51.4682Z" fill="#7BABFF"/>
<path d="M278.496 91.0199L278.441 106.248C278.425 111.579 274.929 116.904 267.949 120.976C253.896 129.17 231.038 129.17 216.891 120.976C209.774 116.855 206.219 111.442 206.235 106.039L206.29 90.811C206.273 96.2132 209.829 101.626 216.946 105.748C231.093 113.942 253.95 113.937 268.004 105.748C274.984 101.676 278.479 96.3561 278.496 91.0199Z" fill="white"/>
<path d="M278.496 106.215L278.441 121.443C278.425 126.774 274.929 132.099 267.949 136.172C253.896 144.366 231.038 144.366 216.891 136.172C209.774 132.05 206.219 126.637 206.235 121.235L206.29 106.006C206.273 111.409 209.829 116.822 216.946 120.943C231.093 129.137 253.95 129.132 268.004 120.943C274.984 116.871 278.479 111.551 278.496 106.215Z" fill="#E6E6E7"/>
<path d="M278.496 121.416L278.441 136.645C278.425 141.975 274.929 147.301 267.949 151.373C253.896 159.567 231.038 159.567 216.891 151.373C209.774 147.251 206.219 141.838 206.235 136.436L206.29 121.208C206.273 126.61 209.829 132.023 216.946 136.145C231.093 144.339 253.95 144.333 268.004 136.145C274.984 132.072 278.479 126.753 278.496 121.416Z" fill="#F1F1F2"/>
<path d="M278.496 136.617L278.441 151.845C278.425 157.176 274.929 162.501 267.949 166.574C253.896 174.767 231.038 174.767 216.891 166.574C209.774 162.452 206.219 157.039 206.235 151.637L206.29 136.408C206.273 141.81 209.829 147.224 216.946 151.345C231.093 159.539 253.95 159.534 268.004 151.345C274.984 147.273 278.479 141.953 278.496 136.617Z" fill="#E6E6E7"/>
<path d="M262.476 335.503L456 222.695L385.169 181.676L191.645 294.484L262.476 335.503Z" fill="#F1F1F2"/>
<path d="M262.476 335.503L262.355 342.982L455.88 230.18L456 222.695L262.476 335.503Z" fill="#D0D1D3"/>
<path d="M191.645 294.484L190.346 295.242V301.282L262.355 342.982L262.476 335.503L191.645 294.484Z" fill="#E6E6E7"/>
<path d="M321.609 173.685L364.267 198.553L371.401 194.42L328.748 169.552L321.609 173.685Z" fill="white"/>
<path d="M321.609 173.685L321.625 178.724L364.284 203.592L364.267 198.552L321.609 173.685Z" fill="#F1F1F2"/>
<path d="M364.267 198.553L364.284 203.592L371.417 199.459L371.401 194.42L364.267 198.553Z" fill="#E6E6E7"/>
<path d="M183.788 254.217L226.447 279.085L233.58 274.952L190.927 250.085L183.788 254.217Z" fill="white"/>
<path d="M183.788 254.218L183.805 259.257L226.463 284.125L226.447 279.085L183.788 254.218Z" fill="#F1F1F2"/>
<path d="M226.447 279.085L226.463 284.125L233.597 279.992L233.58 274.952L226.447 279.085Z" fill="#E6E6E7"/>
<path d="M421.16 210.67L408.279 218.183L395.316 210.67L408.197 203.163L421.16 210.67Z" fill="white"/>
<path d="M421.16 210.67L421.138 223.805L408.257 231.312L408.279 218.183L421.16 210.67Z" fill="#D0D1D3"/>
<path d="M408.279 218.183L408.257 231.312L395.294 223.805L395.316 210.67L408.279 218.183Z" fill="#E6E6E7"/>
<path d="M421.16 191.562L408.279 199.069L395.316 191.562L408.197 184.055L421.16 191.562Z" fill="#7BABFF"/>
<path d="M421.16 191.562L421.138 204.691L408.257 212.198L408.279 199.069L421.16 191.562Z" fill="#4870D1"/>
<path d="M408.279 199.069L408.257 212.198L395.294 204.691L395.316 191.562L408.279 199.069Z" fill="#507DE4"/>
<path d="M395.316 226.937L382.436 234.444L369.473 226.937L382.353 219.425L395.316 226.937Z" fill="white"/>
<path d="M395.316 226.937L395.294 240.066L382.413 247.573L382.435 234.444L395.316 226.937Z" fill="#D0D1D3"/>
<path d="M382.435 234.444L382.413 247.573L369.45 240.066L369.472 226.937L382.435 234.444Z" fill="#E6E6E7"/>
<path d="M351.288 237.396L351.348 258.499L333.043 269.1L332.983 248.002L351.288 237.396Z" fill="#4870D1"/>
<path d="M333.043 269.1L260.525 227.668L260.465 206.571L332.983 248.002L333.043 269.1Z" fill="#507DE4"/>
<path d="M332.983 248.002L260.465 206.571L278.775 195.964L351.288 237.395L332.983 248.002Z" fill="#7BABFF"/>
<path d="M352.882 252.178L352.91 261.208L345.075 265.742L345.053 256.718L352.882 252.178Z" fill="white"/>
<path d="M345.075 265.742L339.996 262.78L339.969 253.75L345.053 256.718L345.075 265.742Z" fill="#507DE4"/>
<path d="M345.053 256.718L339.969 253.75L347.798 249.216L352.882 252.178L345.053 256.718Z" fill="#7BABFF"/>
<path d="M294.012 265.324L294.028 270.364C294.028 269.226 294.774 268.083 296.275 267.215L296.258 262.175C294.757 263.043 294.007 264.186 294.012 265.324Z" fill="#D0D1D3"/>
<path d="M278.386 271.617L278.397 276.656L286.188 272.144L286.172 267.105L278.386 271.617Z" fill="white"/>
<path d="M289.558 278.129L289.574 283.168L297.36 278.656L297.349 273.617L289.558 278.129Z" fill="#7BABFF"/>
<path d="M286.172 267.105L286.188 272.144L297.36 278.657L297.349 273.617L286.172 267.105Z" fill="white"/>
<path d="M267.231 278.074L267.248 283.113L274.973 278.64L274.957 273.601L267.231 278.074Z" fill="white"/>
<path d="M278.386 271.617L289.558 278.129L297.349 273.617L286.172 267.105L278.386 271.617Z" fill="#7BABFF"/>
<path d="M278.386 271.617L278.397 276.656L289.574 283.168L289.558 278.129L278.386 271.617Z" fill="#7BABFF"/>
<path d="M306.06 278.7L306.076 283.734L315.374 278.349L315.363 273.315L306.06 278.7Z" fill="#D0D1D3"/>
<path d="M278.408 284.586L278.419 289.626L286.144 285.152L286.133 280.113L278.408 284.586Z" fill="#7BABFF"/>
<path d="M274.956 273.601L274.973 278.64L286.144 285.152L286.133 280.113L274.956 273.601Z" fill="white"/>
<path d="M267.231 278.074L267.248 283.113L278.419 289.626L278.408 284.586L267.231 278.074Z" fill="#7BABFF"/>
<path d="M267.193 291.082L267.204 296.122L274.989 291.61L274.978 286.576L267.193 291.082Z" fill="#7BABFF"/>
<path d="M263.802 280.063L263.818 285.097L274.989 291.609L274.978 286.576L263.802 280.063Z" fill="white"/>
<path d="M256.016 284.57L256.032 289.609L263.818 285.097L263.801 280.063L256.016 284.57Z" fill="white"/>
<path d="M256.016 284.57L256.032 289.609L267.204 296.122L267.193 291.082L256.016 284.57Z" fill="#7BABFF"/>
<path d="M256.032 297.545L256.049 302.579L263.84 298.072L263.823 293.033L256.032 297.545Z" fill="#7BABFF"/>
<path d="M252.652 286.521L252.663 291.555L263.84 298.073L263.823 293.033L252.652 286.521Z" fill="white"/>
<path d="M263.812 296.358L263.829 301.397L295.234 283.207L295.217 278.173L263.812 296.358Z" fill="white"/>
<path d="M265.851 297.545L265.862 302.584L297.272 284.394L297.255 279.36L265.851 297.545Z" fill="#4870D1"/>
<path d="M297.277 283.207C297.557 283.372 297.699 283.586 297.699 283.795L297.683 278.755C297.683 278.541 297.54 278.327 297.261 278.167C297.261 279.849 297.272 281.525 297.277 283.207C297.277 281.525 297.266 279.849 297.261 278.167C296.697 277.838 295.787 277.843 295.217 278.167L295.234 283.207C295.798 282.877 296.713 282.877 297.277 283.207Z" fill="white"/>
<path d="M297.699 283.795L297.683 278.755C297.683 278.97 297.54 279.19 297.255 279.354L297.272 284.394C297.557 284.229 297.699 284.009 297.699 283.795Z" fill="#4870D1"/>
<path d="M298.275 283.207L298.286 288.246L306.076 283.734L306.06 278.7L298.275 283.207Z" fill="white"/>
<path d="M267.231 278.074L278.408 284.586L286.133 280.113L274.957 273.601L267.231 278.074Z" fill="#7BABFF"/>
<path d="M294.872 285.18L294.889 290.214L298.286 288.246L298.275 283.207L294.872 285.18Z" fill="#D0D1D3"/>
<path d="M287.092 289.686L287.103 294.726L294.889 290.214L294.872 285.18L287.092 289.686Z" fill="white"/>
<path d="M244.861 291.033L244.878 296.067L252.663 291.555L252.652 286.521L244.861 291.033Z" fill="white"/>
<path d="M256.016 284.57L267.193 291.082L274.978 286.576L263.801 280.063L256.016 284.57Z" fill="#7BABFF"/>
<path d="M283.69 291.653L283.706 296.693L287.103 294.725L287.092 289.686L283.69 291.653Z" fill="#D0D1D3"/>
<path d="M275.904 296.16L275.921 301.199L283.706 296.693L283.69 291.654L275.904 296.16Z" fill="white"/>
<path d="M230.085 292.352L230.096 297.391L237.109 301.48L237.098 296.44L230.085 292.352Z" fill="#F1F1F2"/>
<path d="M263.396 301.996C263.396 301.782 263.539 301.562 263.823 301.397L263.807 296.358C263.522 296.523 263.38 296.742 263.38 296.957C263.38 298.468 263.391 300.485 263.396 301.996Z" fill="white"/>
<path d="M244.861 291.032L244.878 296.066L256.049 302.579L256.032 297.545L244.861 291.032Z" fill="#7BABFF"/>
<path d="M263.385 296.957L263.402 301.996C263.402 302.211 263.539 302.419 263.818 302.584C264.382 302.914 265.297 302.914 265.867 302.584L265.851 297.545C265.286 297.875 264.366 297.875 263.802 297.545C263.522 297.38 263.385 297.171 263.385 296.957Z" fill="#4870D1"/>
<path d="M263.812 296.358C263.248 296.688 263.237 297.215 263.801 297.545C264.366 297.875 265.281 297.875 265.851 297.545L297.255 279.354C297.82 279.025 297.825 278.492 297.261 278.167C296.697 277.838 295.787 277.843 295.217 278.167L263.812 296.358Z" fill="#4870D1"/>
<path d="M250.093 304.585L250.077 299.545C250.077 298.419 249.337 297.297 247.863 296.44C244.899 294.709 240.073 294.709 237.092 296.44L237.108 301.48C240.089 299.754 244.91 299.754 247.88 301.48C249.354 302.337 250.088 303.458 250.093 304.585Z" fill="#E6E6E7"/>
<path d="M230.085 292.352L289.245 258.086L296.258 262.175C293.278 263.901 293.261 266.704 296.225 268.435C299.189 270.16 304.011 270.16 306.991 268.435L315.358 273.315L306.06 278.7L298.269 283.212L294.872 285.18L287.087 289.686L283.69 291.654L275.904 296.16L272.507 298.127L264.716 302.639L256.197 307.574L247.831 302.694C250.811 300.969 250.828 298.166 247.864 296.44C244.899 294.709 240.073 294.709 237.092 296.44L230.079 292.352H230.085ZM286.172 267.105L278.381 271.617L289.552 278.129L297.343 273.617L286.172 267.105ZM256.032 297.545L263.823 293.033L252.652 286.521L244.861 291.033L256.032 297.545ZM263.802 280.063L256.016 284.57L267.187 291.082L274.973 286.576L263.802 280.063ZM274.956 273.601L267.231 278.074L278.403 284.586L286.128 280.113L274.956 273.601ZM265.845 297.545L297.25 279.354C297.814 279.025 297.82 278.492 297.255 278.167C296.691 277.838 295.782 277.843 295.212 278.167L263.807 296.358C263.243 296.688 263.232 297.215 263.796 297.545C264.36 297.875 265.275 297.875 265.845 297.545Z" fill="white"/>
<path d="M244.861 291.033L256.032 297.545L263.823 293.033L252.652 286.521L244.861 291.033Z" fill="#7BABFF"/>
<path d="M272.507 298.133L272.524 303.167L275.921 301.199L275.904 296.16L272.507 298.133Z" fill="#D0D1D3"/>
<path d="M264.716 302.639L264.733 307.679L272.524 303.167L272.507 298.133L264.716 302.639Z" fill="white"/>
<path d="M247.831 302.7L247.847 307.734L256.213 312.614L256.197 307.574L247.831 302.7Z" fill="#F1F1F2"/>
<path d="M256.197 307.574L256.213 312.614L264.733 307.679L264.717 302.639L256.197 307.574Z" fill="#D0D1D3"/>
<path d="M298.275 283.207L300.926 284.757L308.717 280.245L306.06 278.7L298.275 283.207Z" fill="#E6E6E7"/>
<path d="M298.275 283.207L298.286 288.246L300.943 289.796L300.926 284.757L298.275 283.207Z" fill="#F1F1F2"/>
<path d="M300.926 284.757L300.943 289.796L308.728 285.284L308.717 280.245L300.926 284.757Z" fill="#D0D1D3"/>
<path d="M287.092 289.686L289.744 291.23L297.529 286.724L294.872 285.18L287.092 289.686Z" fill="#E6E6E7"/>
<path d="M287.092 289.686L287.103 294.725L289.76 296.27L289.744 291.23L287.092 289.686Z" fill="#F1F1F2"/>
<path d="M289.744 291.23L289.76 296.27L297.54 291.763L297.529 286.724L289.744 291.23Z" fill="#D0D1D3"/>
<path d="M275.904 296.16L278.562 297.71L286.347 293.203L283.69 291.654L275.904 296.16Z" fill="#E6E6E7"/>
<path d="M275.904 296.16L275.921 301.199L278.573 302.749L278.562 297.71L275.904 296.16Z" fill="#F1F1F2"/>
<path d="M278.562 297.71L278.572 302.749L286.358 298.237L286.347 293.203L278.562 297.71Z" fill="#D0D1D3"/>
<path d="M264.716 302.639L267.374 304.189L275.159 299.677L272.507 298.133L264.716 302.639Z" fill="#E6E6E7"/>
<path d="M264.716 302.639L264.733 307.679L267.385 309.228L267.374 304.189L264.716 302.639Z" fill="#F1F1F2"/>
<path d="M267.374 304.189L267.385 309.228L275.176 304.716L275.159 299.677L267.374 304.189Z" fill="#D0D1D3"/>
<path d="M51.3202 181.676V126.692C51.3202 123.301 53.1282 120.169 56.0594 118.476L130.583 75.5336C136.878 71.9065 144.735 76.4624 144.735 83.7496V121.982" stroke="#7BABFF" stroke-miterlimit="10"/>
<path d="M64.245 180.225L51.3642 187.732L38.4012 180.225L51.2821 172.712L64.245 180.225Z" fill="#F1F1F2"/>
<path d="M64.2449 180.225L64.223 193.354L51.3422 200.861L51.3641 187.732L64.2449 180.225Z" fill="#D0D1D3"/>
<path d="M51.3641 187.732L51.3421 200.861L38.3792 193.354L38.4011 180.225L51.3641 187.732Z" fill="#E6E6E7"/>
<path d="M176.918 127.187C165.653 131.083 156.783 130.445 150.477 128.615L145.628 131.424C139.355 140.541 130.517 151.433 119.269 160.572C118.677 173.855 119.559 198.338 133.065 206.213L137.41 208.747C138.527 209.401 139.733 209.939 141.031 210.346C139.618 209.522 138.21 208.703 136.796 207.878C136.763 207.862 136.725 207.829 136.686 207.818C136.226 207.675 135.777 207.505 135.339 207.329C123.817 198.261 123.055 175.68 123.614 163.111C134.862 153.972 143.699 143.08 149.973 133.963L154.821 131.154C160.322 132.748 167.773 133.441 177.055 131.006C177.422 148.729 174.288 182.945 148.269 208.208C143.76 209.054 139.93 208.846 136.681 207.823C138.127 208.67 139.574 209.511 141.026 210.357C144.275 211.379 148.104 211.593 152.613 210.742C180.643 183.522 182.117 145.91 181.257 129.731L176.912 127.198L176.918 127.187Z" fill="#DCF4E7"/>
<path d="M114.491 158.231C129.41 148.471 140.297 134.116 146.466 124.516L158.268 117.679C164.47 120.119 175.4 121.834 190.33 114.31L185.985 111.777C171.055 119.3 160.125 117.58 153.923 115.146L142.121 121.982C135.952 131.588 125.071 145.938 110.147 155.698C109.747 158.77 103.605 205.807 125.405 218.512L129.75 221.046C107.95 208.34 114.092 161.303 114.491 158.231Z" fill="#D0D1D3"/>
<path d="M154.821 131.149C161.128 132.979 169.998 133.617 181.262 129.72C182.117 145.899 180.649 183.511 152.619 210.731C124.534 216.007 122.852 180.241 123.614 163.106C134.862 153.967 143.699 143.075 149.973 133.957L154.821 131.149Z" fill="white"/>
<path d="M190.33 114.311C190.856 117.575 200.811 179.582 152.652 222.711C104.41 235.406 113.987 162.089 114.491 158.231C129.41 148.466 140.297 134.117 146.466 124.516L158.268 117.679C164.47 120.119 175.4 121.834 190.33 114.311ZM152.619 210.731C180.649 183.511 182.123 145.899 181.262 129.72C169.998 133.617 161.128 132.979 154.821 131.149L149.973 133.957C143.699 143.075 134.862 153.967 123.614 163.106C122.852 180.241 124.534 216.012 152.619 210.731Z" fill="#4870D1"/>
<path d="M94.6198 96.2573V81.4467C94.6198 77.4514 96.7894 73.7748 100.274 71.8514L226.211 2.37048C233.487 -1.64131 242.39 3.63447 242.39 11.9658V61.3603" stroke="#7BABFF" stroke-miterlimit="10"/>
<path d="M255.32 46.7419L242.445 54.2488L229.477 46.7419L242.357 39.2349L255.32 46.7419Z" fill="#F1F1F2"/>
<path d="M255.32 46.7417L255.298 59.8707L242.417 67.3832L242.445 54.2487L255.32 46.7417Z" fill="#D0D1D3"/>
<path d="M242.445 54.2487L242.417 67.3832L229.454 59.8707L229.476 46.7417L242.445 54.2487Z" fill="#E6E6E7"/>
<path d="M154.652 182.527L150.307 179.994L152.405 178.779L156.75 181.307L154.652 182.527Z" fill="#4870D1"/>
<path d="M156.75 181.307L152.405 178.779L152.4 175.339L156.739 177.867L156.75 181.307Z" fill="#4870D1"/>
<path d="M154.652 182.527L150.307 179.994L150.296 176.554L154.641 179.087L154.652 182.527Z" fill="white"/>
<path d="M154.635 170.448C154.635 169.404 154.263 168.668 153.671 168.321L158.016 170.855C158.607 171.201 158.974 171.937 158.98 172.982C158.98 174.652 158.043 176.609 156.745 177.867L152.4 175.334C153.698 174.07 154.641 172.119 154.635 170.448Z" fill="#4870D1"/>
<path d="M148.992 176.372C149.354 176.581 149.797 176.647 150.296 176.554L154.641 179.087C154.142 179.181 153.698 179.115 153.337 178.906C152.033 178.147 150.296 177.136 148.992 176.372Z" fill="#4870D1"/>
<path d="M163.111 154.731L167.456 157.264C166.837 156.901 165.971 156.951 165.023 157.506L160.678 154.972C161.626 154.423 162.492 154.373 163.111 154.731Z" fill="#507DE4"/>
<path d="M143.913 195.739L139.568 193.205C138.955 192.848 138.577 192.09 138.571 191.013L142.916 193.546C142.916 194.623 143.299 195.382 143.913 195.739Z" fill="#507DE4"/>
<path d="M153.671 168.327L158.016 170.86C157.418 170.508 156.586 170.558 155.671 171.091L151.326 168.558C152.241 168.03 153.068 167.98 153.671 168.327Z" fill="white"/>
<path d="M153.337 178.9L148.992 176.367C148.406 176.026 148.039 175.301 148.039 174.267C148.033 172.168 149.507 169.607 151.326 168.552L155.671 171.085C153.852 172.141 152.378 174.702 152.383 176.801C152.383 177.834 152.75 178.559 153.337 178.9Z" fill="white"/>
<path d="M165.023 157.5C166.913 156.407 168.447 157.286 168.453 159.462L168.508 178.73C168.513 180.901 166.99 183.55 165.1 184.643L146.351 195.503C144.461 196.596 142.927 195.717 142.921 193.546L142.867 174.279C142.861 172.102 144.384 169.453 146.274 168.36L165.023 157.5ZM156.745 177.867C158.043 176.603 158.985 174.652 158.98 172.982C158.974 170.882 157.495 170.03 155.671 171.086C153.852 172.141 152.372 174.702 152.383 176.801C152.383 178.472 153.342 179.329 154.646 179.082L154.657 182.522L156.756 181.307L156.745 177.867Z" fill="#4870D1"/>
<path d="M155.671 171.086C157.49 170.03 158.975 170.882 158.98 172.982C158.98 174.652 158.043 176.609 156.745 177.867L156.756 181.307L154.657 182.522L154.646 179.082C153.342 179.329 152.389 178.472 152.383 176.801C152.378 174.702 153.852 172.141 155.671 171.086Z" fill="white"/>
<path d="M146.274 168.36L141.93 165.826L160.678 154.972L165.023 157.5L146.274 168.36Z" fill="#507DE4"/>
<path d="M148.099 167.299L143.754 164.771V163.562L148.093 166.095L148.099 167.299Z" fill="#507DE4"/>
<path d="M156.646 149.971L160.991 152.505C159.621 151.703 157.72 151.818 155.621 153.032L151.277 150.499C153.375 149.284 155.271 149.175 156.646 149.971Z" fill="#507DE4"/>
<path d="M142.921 193.541L138.577 191.013L138.522 171.745L142.867 174.279L142.921 193.541Z" fill="#507DE4"/>
<path d="M142.867 174.278L138.522 171.745C138.516 169.569 140.04 166.92 141.93 165.826L146.274 168.36C144.384 169.453 142.861 172.102 142.867 174.278Z" fill="#507DE4"/>
<path d="M155.616 153.027C159.78 150.614 163.171 152.554 163.188 157.352V158.556L148.099 167.299V166.096C148.083 161.292 151.452 155.445 155.621 153.027H155.616Z" fill="#7BABFF"/>
<path d="M148.093 166.095L143.749 163.562C143.738 158.759 147.102 152.911 151.271 150.493L155.616 153.027C151.446 155.439 148.077 161.292 148.093 166.095Z" fill="#507DE4"/>
<path d="M181.405 234.972L181.394 239.572C181.394 240.522 180.769 241.473 179.52 242.204C177.011 243.666 172.929 243.666 170.403 242.204C169.132 241.467 168.497 240.5 168.502 239.539L168.513 234.939C168.513 235.906 169.143 236.868 170.414 237.604C172.94 239.066 177.022 239.066 179.531 237.604C180.78 236.879 181.399 235.928 181.405 234.977V234.972Z" fill="#D0D1D3"/>
<path d="M179.504 232.306C182.03 233.768 182.04 236.142 179.531 237.604C177.022 239.066 172.94 239.066 170.414 237.604C167.889 236.142 167.878 233.768 170.387 232.306C172.896 230.845 176.978 230.845 179.504 232.306Z" fill="white"/>
<path d="M251.507 196.788L251.496 201.388C251.496 202.339 250.871 203.29 249.622 204.015C247.113 205.477 243.031 205.477 240.505 204.015C239.234 203.279 238.599 202.311 238.604 201.35L238.615 196.75C238.615 197.717 239.245 198.679 240.516 199.415C243.042 200.877 247.124 200.877 249.633 199.415C250.882 198.69 251.501 197.739 251.507 196.783V196.788Z" fill="#D0D1D3"/>
<path d="M249.606 194.123C252.132 195.585 252.143 197.959 249.633 199.421C247.124 200.883 243.042 200.883 240.516 199.421C237.991 197.959 237.98 195.585 240.489 194.123C242.998 192.661 247.08 192.661 249.606 194.123Z" fill="white"/>
<path d="M317.171 160.012L317.16 164.612C317.16 165.562 316.536 166.513 315.286 167.239C312.777 168.7 308.695 168.7 306.17 167.239C304.898 166.502 304.263 165.535 304.268 164.573L304.279 159.973C304.279 160.941 304.909 161.902 306.18 162.639C308.706 164.101 312.788 164.101 315.297 162.639C316.546 161.913 317.166 160.963 317.171 160.006V160.012Z" fill="#D0D1D3"/>
<path d="M315.27 157.341C317.796 158.803 317.807 161.177 315.297 162.639C312.788 164.101 308.706 164.101 306.181 162.639C303.655 161.177 303.644 158.803 306.153 157.341C308.662 155.879 312.744 155.879 315.27 157.341Z" fill="white"/>
<g opacity="0.2">
<path d="M132.231 312.886L92.159 336.243L51.8291 312.886L91.896 289.53L132.231 312.886Z" fill="#7BABFF"/>
</g>
<g opacity="0.2">
<path d="M132.231 300.164L92.159 323.526L51.8291 300.169L91.896 276.808L132.231 300.164Z" fill="#7BABFF"/>
</g>
<g opacity="0.2">
<path d="M369.943 108.675L340.006 126.124L309.873 108.675L339.809 91.2266L369.943 108.675Z" fill="#BBBCBF"/>
</g>
<g opacity="0.2">
<path d="M369.943 121.48L340.006 138.934L309.873 121.48L339.809 104.032L369.943 121.48Z" fill="#BBBCBF"/>
</g>
</svg>
