<?xml version="1.0" encoding="UTF-8"?>
<svg id="Layer_2" data-name="Layer 2" xmlns="http://www.w3.org/2000/svg" viewBox="0 0 133.15 64.95">
  <defs>
    <style>
      .cls-1 {
        fill: #546eb4;
      }

      .cls-1, .cls-2 {
        stroke-width: 0px;
      }

      .cls-2 {
        fill: #8f8f8f;
      }
    </style>
  </defs>
  <g id="_레이어_1" data-name="레이어 1">
    <g>
      <g>
        <g>
          <path class="cls-2" d="m30.14,37.71v1.31h-1.11c-.89,0-1.66-.54-1.99-1.31-.05-.12-.09-.24-.12-.37,0-.07-.02-.14-.04-.21-.15-.71-.57-1.34-1.19-1.75L3.19,20.46v10.47c0,1.19-.97,2.16-2.16,2.16H0v-15.55c0-.5.21-.99.6-1.3.56-.44,1.31-.46,1.88-.09l6.73,4.46,3.19,2.12,15.06,9.98c1.68,1.12,2.68,2.98,2.68,4.99Z"/>
          <path class="cls-2" d="m5.87,38.14l-3.4-2.25c-.49-.32-1.12-.36-1.64-.07C.32,36.09,0,36.63,0,37.22v25.89c0,.59.32,1.12.83,1.4.24.13.5.19.76.19.3,0,.6-.09.87-.26l7.72-4.99h0c1.69-1.1,2.71-2.95,2.73-4.96v-.02s.01-2.65.01-2.65c-1.37-.9-3.19.08-3.19,1.72v.91h-.01c0,.93-.48,1.8-1.27,2.31h0s-5.26,3.4-5.26,3.4v-19.99l.07.04h0s1.01.67,1.01.67l2.52,1.67h0s8.66,5.74,8.66,5.74c.99.66,2.34.39,3-.61l.57-.86-13.14-8.71Z"/>
        </g>
        <path class="cls-1" d="m39.35,21.81v21.65c0,2.21-1.21,4.23-3.15,5.27-.89.48-1.86.71-2.83.71-1.15,0-2.3-.34-3.3-.99l-17.6-11.66c-2.04-1.35-3.25-3.62-3.25-6.06v-.98h1.16c1,0,1.84.68,2.08,1.6.02.12.04.23.07.35h0c.08.34.21.66.37.97.31.58.77,1.1,1.34,1.47l17.6,11.66c.87.58,1.94.63,2.86.13.92-.49,1.47-1.41,1.47-2.46v-21.65c0-.94-.47-1.81-1.25-2.33L12.4,4.57v18.17l-3.19-2.12V1.59c0-.59.32-1.13.84-1.41.52-.28,1.14-.24,1.64.08l24.98,16.56c1.68,1.11,2.68,2.98,2.68,4.99Z"/>
      </g>
      <g>
        <g>
          <path class="cls-1" d="m64.33,21.59c-.44,0-.95-.18-1.51-.55-.56-.36-1.06-.77-1.47-1.22-.39-.39-.75-.84-1.06-1.33-.31-.5-.47-.93-.47-1.3v-8.21h22.01c.63,0,.94.63.94,1.89s-.31,1.88-.94,1.88h-17.64v3.77c0,.86.41,1.3,1.22,1.3h16.82c.63,0,.94.63.94,1.88s-.31,1.89-.94,1.89h-8.61v3.62h13.99c.6,0,.9.61.9,1.85,0,.68-.08,1.17-.24,1.46s-.38.43-.67.43h-32.85v-3.73h14.5v-3.62h-4.91Zm-4.68,10.14h23.58v10.92c0,.81-.19,1.44-.57,1.88-.38.45-.98.67-1.79.67h-16.7c-.45,0-.95-.18-1.51-.55-.57-.36-1.06-.77-1.47-1.22-.39-.39-.75-.84-1.06-1.33-.31-.5-.47-.93-.47-1.3v-9.08Zm4.36,8.45c0,.86.41,1.3,1.22,1.3h13.63v-6.01h-14.85v4.72Z"/>
          <path class="cls-1" d="m118.22,9.92c.63,0,.94.64.94,1.93s-.32,1.85-.94,1.85h-1.77v8.92h2.55c.63,0,.94.63.94,1.89s-.31,1.88-.94,1.88h-17.45v-3.77h2.95v-8.92h-2.95v-3.77h16.66Zm-6.13,3.77h-3.22v8.92h3.22v-8.92Zm-2.09,16.43h22.75v12.54c0,.81-.19,1.44-.57,1.88-.38.45-.98.67-1.79.67h-15.99c-.45,0-.93-.17-1.46-.51-.52-.34-.99-.74-1.41-1.18-.39-.39-.75-.83-1.06-1.3-.31-.47-.47-.89-.47-1.26v-10.84Zm4.36,10.26c0,.68.3,1.02.91,1.02h13.12v-7.46h-14.03v6.44Zm14.46-31.36h4.32v18.35c0,.6-.72.9-2.16.9s-2.16-.3-2.16-.9v-7.39h-3.65v7c0,.6-.72.9-2.16.9s-2.12-.3-2.12-.9V9.41h4.29v6.8h3.65v-7.19Z"/>
        </g>
        <g>
          <path class="cls-2" d="m59.85,53.21c3.43,0,5.29,1.91,5.29,5.88s-1.84,5.86-5.29,5.86h-4.14c-.66,0-.97-.31-.97-.96v-9.83c0-.64.31-.96.97-.96h4.14Zm-3.06,9.48c0,.16.07.21.23.21h2.83c2.28,0,3.24-1.13,3.24-3.83s-.96-3.81-3.24-3.81h-2.83c-.16,0-.23.05-.23.21v7.22Z"/>
          <path class="cls-2" d="m73.36,53.21c3.41,0,5.3,1.95,5.3,5.9s-1.88,5.84-5.3,5.84h-1.6c-3.43,0-5.3-1.91-5.3-5.84s1.9-5.9,5.3-5.9h1.6Zm-1.6,2.05c-2.26,0-3.25,1.15-3.25,3.84s.97,3.79,3.25,3.79h1.6c2.26,0,3.23-1.11,3.23-3.81s-.97-3.83-3.23-3.83h-1.6Z"/>
          <path class="cls-2" d="m105.31,53.21v2.05h-4.73c-1.86,0-2.42.89-2.42,1.98v1.11h7.08v1.95h-7.08v4.64h-2.05v-7.69c0-2.35,1.22-4.05,4.33-4.05h4.87Z"/>
          <path class="cls-2" d="m107.39,64.95h-2.26l4.12-10.43c.43-1.1,1.24-1.51,2.47-1.51s2.02.42,2.43,1.51l3.97,10.43h-2.28l-3.56-9.44c-.1-.28-.3-.4-.57-.4s-.47.12-.59.4l-3.72,9.44Z"/>
          <path class="cls-2" d="m87.32,64.45c-1.41,0-2.59-.87-3-2.23l-2.09-6.94s-.03,0-.04,0l.02,9.68h-2.05v-9.67c0-1.05.73-1.89,1.77-2.04,1.04-.15,1.98.44,2.28,1.45l2.09,6.94c.21.71.84.77,1.03.77s.82-.06,1.03-.77l2.09-6.94c.3-1.01,1.24-1.6,2.28-1.45,1.04.15,1.77.99,1.77,2.04v9.67h-2.05v-9.67s-.02-.01-.04-.01l-2.08,6.95c-.41,1.35-1.59,2.23-3,2.23h0Z"/>
          <path class="cls-2" d="m125.98,64.45c-1.41,0-2.59-.87-3-2.23l-2.09-6.94s-.03,0-.04,0l.02,9.68h-2.05v-9.67c0-1.05.73-1.89,1.77-2.04,1.04-.15,1.98.44,2.28,1.45l2.09,6.94c.21.71.84.77,1.03.77s.82-.06,1.03-.77l2.09-6.94c.3-1.01,1.24-1.6,2.28-1.45,1.04.15,1.77.99,1.77,2.04v9.67h-2.05v-9.67s-.02-.01-.04-.01l-2.08,6.95c-.41,1.35-1.59,2.23-3,2.23h0Z"/>
        </g>
      </g>
    </g>
  </g>
</svg>