<svg width="36" height="36" viewBox="0 0 36 36" fill="none" xmlns="http://www.w3.org/2000/svg">
<path d="M31.5 10.6091V32.3926C31.5 33.0076 31.0059 33.5 30.4036 33.5H9.27957C8.6773 33.5 8.18317 33.0076 8.18317 32.3926V3.60762C8.18317 2.99259 8.6774 2.5 9.27957 2.5H22.885L31.5 10.6091Z" fill="white" stroke="#A6A6A6"/>
<path d="M4.36511 29.1231L7.68305 31.5307L7.66533 28.7529L4.36511 29.1231Z" fill="#BA1E2A"/>
<path d="M4.89076 16.5986H25.3161C25.8075 16.5986 26.2069 17.0657 26.2069 17.6413V28.2085C26.2069 28.7838 25.8079 29.2512 25.3161 29.2512H4.89076C4.39934 29.2512 4 28.7842 4 28.2085V17.6413C4 17.0661 4.39898 16.5986 4.89076 16.5986Z" fill="#ED1B24"/>
<path d="M32 10.3931V10.6416H24.0561C23.4498 10.6416 22.9578 10.1463 22.9578 9.5355V2H23.0832L32 10.3931Z" fill="#A6A6A6"/>
<path d="M20.5151 7.83984H10.202V9.15168H20.5151V7.83984Z" fill="#E6E6E6"/>
<path d="M20.5151 10.2217H10.202V11.5335H20.5151V10.2217Z" fill="#E6E6E6"/>
<path d="M20.5151 12.6035H10.202V13.9154H20.5151V12.6035Z" fill="#E6E6E6"/>
<path d="M6.50635 26V19.9902H8.86377C10.2292 19.9902 11.0137 20.8328 11.0137 22.0156C11.0137 23.2151 10.2168 24.041 8.83057 24.041H7.75146V26H6.50635ZM7.75146 23.0366H8.63135C9.37012 23.0366 9.7312 22.6216 9.72705 22.0156C9.7312 21.418 9.37012 21.0154 8.63135 21.0112H7.75146V23.0366ZM13.9189 26H11.8022V19.9902H13.9438C15.7534 19.9902 16.8616 21.115 16.8574 22.9868C16.8616 24.8669 15.7534 26 13.9189 26ZM13.0474 24.9292H13.8691C15.0146 24.9292 15.6123 24.3357 15.6123 22.9868C15.6123 21.6504 15.0146 21.061 13.8774 21.061H13.0474V24.9292ZM17.7622 26V19.9902H21.7217V21.0195H19.0073V22.4805H21.4644V23.5098H19.0073V26H17.7622Z" fill="white"/>
</svg>
