<svg width="24" height="24" viewBox="0 0 24 24" fill="none" xmlns="http://www.w3.org/2000/svg">
<g id="icon/24/link">
<path id="Vector" d="M4.23803 13.7843C3.44533 14.577 3 15.6521 3 16.7731C3 17.8942 3.44533 18.9693 4.23803 19.762C5.03072 20.5547 6.10584 21 7.22688 21C8.34792 21 9.42305 20.5547 10.2157 19.762M13.2022 10.7978C13.5947 11.1903 13.9061 11.6563 14.1185 12.1691C14.331 12.6819 14.4403 13.2316 14.4403 13.7867C14.4403 14.3418 14.331 14.8914 14.1185 15.4042C13.9061 15.9171 13.5947 16.383 13.2022 16.7755L10.2133 19.7644M7.22447 10.7978L4.23561 13.7867M19.762 10.2157C20.5547 9.42305 21 8.34792 21 7.22688C21 6.10584 20.5547 5.03072 19.762 4.23803C18.9693 3.44533 17.8942 3 16.7731 3C15.6521 3 14.577 3.44533 13.7843 4.23803M10.8002 13.2034C10.4077 12.8109 10.0963 12.3449 9.88389 11.8321C9.67146 11.3193 9.56212 10.7696 9.56212 10.2145C9.56212 9.65944 9.67146 9.10979 9.88389 8.59696C10.0963 8.08413 10.4077 7.61816 10.8002 7.22568L13.7879 4.23682M16.7755 13.2034L19.7644 10.2145" stroke="#676767" stroke-width="1.5" stroke-linecap="round" stroke-linejoin="round"/>
</g>
</svg>
