<svg width="24" height="24" viewBox="0 0 24 24" fill="none" xmlns="http://www.w3.org/2000/svg">
<path d="M16.5 6.14923C15.2362 5.69029 13.7595 5.3999 12.0459 5.3999C3.87622 5.3999 1 11.9999 1 11.9999C1 11.9999 2.91341 15.9811 7.5 17.7594" stroke="#666666" stroke-width="1.5" stroke-miterlimit="10"/>
<path d="M19.1192 7.5C21.9168 9.43226 23 11.9999 23 11.9999C23 11.9999 20.1034 18.5999 12.1377 18.5999C11.3825 18.5999 10.6704 18.5406 10 18.4332" stroke="#666666" stroke-width="1.5" stroke-miterlimit="10" stroke-linecap="round"/>
<path d="M12 15.2997C13.8225 15.2997 15.3 13.8222 15.3 11.9997C15.3 10.1772 13.8225 8.69971 12 8.69971C10.1774 8.69971 8.69995 10.1772 8.69995 11.9997C8.69995 13.8222 10.1774 15.2997 12 15.2997Z" stroke="#666666" stroke-width="1.5" stroke-miterlimit="10"/>
<path d="M19 2.5L4.5 21" stroke="#666666" stroke-width="1.5" stroke-linecap="round"/>
</svg>
